:SAMPLES-PER-SECOND 30
:FULLY-SPECIFIED
:DEGREES
568
root  -79.9657 40.0302 -2.43369 -166.196 -88.0983 159.389
RightUpLeg  -8.88148 -9.53109 -1.73401
RightLeg  18.0998 5.04377 2.67026
RightFoot  -1.56521 0.246377 -3.00143
RightToes  -3.0268e-009 0 -3.6325e-017
Spine  7.08402 0.322089 10.479
Spine1  6.56911 2.36564 -3.10013
HEad  -16.2202 -27.734 1.35663
LeftShoulder1  -0.685688 5.18621 -34.5822
LeftArm  -5.86564 28.6805 -34.7147
LeftForeArm  33.058 -12.44 -5.84715
LeftHand  -0.27876 10.6677 -4.56517
RightShoulder  -1.40338 -7.24156 31.0533
RightArm  8.34533 11.1691 41.9462
RightForeArm  12.9322 40.6711 8.79336
RightHand  -0.450531 6.37167 -4.78574
LeftUpLeg  -13.1581 10.0519 5.35634
LeftLeg  53.1447 1.95838 3.27288
LeftFoot  -6.01425 0.184069 -3.28213
LeftToes  2.52475e-009 -1.26109e-010 3.16044e-011
569
root  -80.4364 40.1534 -2.54403 -141.276 -88.1569 134.853
RightUpLeg  -8.22842 -9.82379 -2.42245
RightLeg  17.6883 5.0504 2.57837
RightFoot  -2.0932 0.234528 -3.07422
RightToes  -3.0268e-009 0 -3.6325e-017
Spine  6.46746 0.363388 10.6784
Spine1  6.14366 2.57682 -4.5198
HEad  -15.7471 -28.6663 1.39979
LeftShoulder1  -0.681864 5.18517 -34.3789
LeftArm  -5.30462 26.936 -34.763
LeftForeArm  32.2506 -12.5728 -5.98706
LeftHand  -0.169889 9.71572 -3.03876
RightShoulder  -1.23217 -6.84437 30.3797
RightArm  8.41822 12.4012 42.8024
RightForeArm  13.6018 41.4212 8.99625
RightHand  -0.342227 6.75298 -3.62477
LeftUpLeg  -13.697 10.1308 4.15496
LeftLeg  47.2952 1.69301 2.38413
LeftFoot  -8.07631 0.174123 -4.34088
LeftToes  2.52475e-009 -1.26109e-010 3.16044e-011
570
root  -80.8556 40.2425 -2.59733 -128.382 -88.0551 122.358
RightUpLeg  -7.69824 -10.0297 -2.84614
RightLeg  17.2866 5.10206 2.61557
RightFoot  -2.53688 0.228696 -3.18786
RightToes  -3.0268e-009 0 -3.6325e-017
Spine  5.93327 0.36767 10.9912
Spine1  5.87001 2.65465 -5.61992
HEad  -15.2041 -29.1388 1.13434
LeftShoulder1  -0.645886 5.09876 -34.3242
LeftArm  -3.68577 25.0946 -35.3234
LeftForeArm  32.0099 -13.8109 -6.00152
LeftHand  -0.227984 9.99687 -4.03087
RightShoulder  -1.09965 -6.518 29.9573
RightArm  9.44927 13.7768 43.0584
RightForeArm  12.8743 41.6073 9.10643
RightHand  -0.48397 6.2202 -5.13614
LeftUpLeg  -13.3166 9.4085 3.21415
LeftLeg  39.5923 0.576443 0.909214
LeftFoot  -8.84909 0.147636 -4.35797
LeftToes  2.52475e-009 -1.26109e-010 3.16044e-011
571
root  -81.2637 40.3327 -2.62973 -126.602 -88.169 120.384
RightUpLeg  -6.39248 -9.92799 -2.90905
RightLeg  16.5619 5.0014 2.49684
RightFoot  -2.98729 0.193446 -2.92554
RightToes  -3.0268e-009 0 -3.6325e-017
Spine  5.78378 0.435821 11.344
Spine1  5.9612 2.79556 -6.37848
HEad  -15.0237 -29.643 1.01836
LeftShoulder1  -0.637937 5.08467 -34.1843
LeftArm  -2.40645 22.6402 -36.5211
LeftForeArm  31.7302 -15.353 -5.63192
LeftHand  -0.352218 10.9297 -5.89846
RightShoulder  -1.0988 -6.52638 29.8221
RightArm  11.2368 14.9952 42.8905
RightForeArm  11.0304 40.9906 9.02512
RightHand  -0.67498 6.84803 -6.7458
LeftUpLeg  -10.9569 7.03381 2.90089
LeftLeg  29.4829 -1.36097 -0.503814
LeftFoot  -8.85572 0.169239 -4.99585
LeftToes  2.52475e-009 -1.26109e-010 3.16044e-011
572
root  -81.6588 40.4435 -2.66338 -132.4 -88.8539 125.724
RightUpLeg  -4.3354 -9.55692 -2.45649
RightLeg  14.9051 4.36437 2.40471
RightFoot  -2.79831 0.204591 -2.9897
RightToes  -3.0268e-009 0 -3.6325e-017
Spine  5.80782 0.308528 11.7404
Spine1  5.92569 2.67121 -6.88812
HEad  -14.7258 -30.1577 1.2104
LeftShoulder1  -0.608095 5.02161 -33.8991
LeftArm  0.020889 21.0439 -37.9741
LeftForeArm  29.4227 -17.6379 -5.04075
LeftHand  -0.224995 9.84374 -4.12755
RightShoulder  -1.1853 -6.72257 30.3104
RightArm  14.6155 16.481 42.1823
RightForeArm  9.081 39.0979 8.54188
RightHand  -0.668238 6.76128 -6.71874
LeftUpLeg  -7.97381 2.78637 3.21114
LeftLeg  18.9489 -3.08095 -0.784743
LeftFoot  -6.39108 0.185481 -4.39612
LeftToes  2.52475e-009 -1.26109e-010 3.16044e-011
573
root  -81.9906 40.6043 -2.70875 -130.071 -89.1793 123.754
RightUpLeg  -3.07487 -9.00853 -2.15911
RightLeg  12.7422 3.68822 2.16016
RightFoot  -2.22535 0.225756 -3.01774
RightToes  -3.0268e-009 0 -3.6325e-017
Spine  5.18263 0.279952 10.6507
Spine1  5.89205 2.3014 -6.46465
HEad  -14.3237 -29.8099 1.1771
LeftShoulder1  -0.565296 4.92173 -33.7117
LeftArm  2.24805 19.9238 -39.4759
LeftForeArm  26.1969 -20.532 -4.12181
LeftHand  -0.0966013 8.23818 -2.0942
RightShoulder  -1.24545 -6.85349 30.6773
RightArm  18.027 17.32 42.005
RightForeArm  7.64726 36.4343 7.8326
RightHand  -0.740193 6.56506 -7.5549
LeftUpLeg  -6.70761 -1.51724 2.83938
LeftLeg  12.2918 -3.09963 -0.0596144
LeftFoot  -0.409461 0.0074571 0.189461
LeftToes  2.52475e-009 -1.26109e-010 3.16044e-011
